# xmcd CD database file
#
# Track frame offsets:
#	150
#	25310
#	41572
#	61000
#	84282
#	99147
#	124670
#	143647
#	158220
#
# Disc length: 2305 seconds
#
# Revision: 0
# Processed by: cddbd v1.5PL3 Copyright (c) Steve Scherf et al.
# Submitted via: CDex 1.50Beta5
#
DISCID=6208ff09
DTITLE=Mona - Personal Journey
DYEAR=1996
DGENRE=New Age
TTITLE0=Simplicity
TTITLE1=Eva's Love
TTITLE2=Personal Journey
TTITLE3=Bitter Sweet
TTITLE4=Jewels
TTITLE5=Powwer Of Angels
TTITLE6=Something About Your Eyes
TTITLE7=A Song For Myla
TTITLE8=In My Heart
EXTD=YEAR: 1996
EXTT0=
EXTT1=
EXTT2=
EXTT3=
EXTT4=
EXTT5=
EXTT6=
EXTT7=
EXTT8=
PLAYORDER=
